<svg width="153" height="240" viewBox="0 0 153 240" fill="none" xmlns="http://www.w3.org/2000/svg">
<g clip-path="url(#clip0_75_2026)">
<path fill-rule="evenodd" clip-rule="evenodd" d="M25.8925 150.082C24.8652 149.261 23.9937 148.429 23.2915 147.6C20.9555 144.843 19.5594 141.087 19.155 136.931C18.7015 132.237 19.513 127.025 21.338 122.515C19.7971 119.594 19.0212 116.007 19.0294 112.233C19.0485 105.357 21.6795 97.9364 25.9198 93.4582C33.2037 85.7673 46.2716 79.2654 65.7627 72.3518C65.8911 64.6636 65.2545 57.6682 63.6999 51.3573C57.5416 26.3673 67.1424 12.39 79.9862 11.0018C87.3275 10.2082 92.0322 14.4136 94.5813 22.2136C97.3107 30.5645 97.3763 43.8109 97.8052 55.9827C98.1959 67.0827 102.201 74.9455 106.794 82.1755C109.278 86.0836 111.928 89.82 114.376 93.7145C117.201 92.3345 119.916 92.2636 123.129 94.2409C125.416 95.6455 127.602 98.3618 129.285 102.213C131.279 106.773 132.741 113.108 133.46 120.079C134.512 130.276 133.992 141.843 131.553 150.968C129.719 157.827 126.711 163.35 122.78 166.481C120.977 167.918 118.709 168.453 116.141 168.038C114.936 167.842 113.624 167.405 112.294 166.792C110.245 169.012 107.884 171.115 105.168 173.133C102.264 175.29 91.3437 180.033 84.221 185.419C73.3362 193.65 63.8994 202.972 48.7004 220.95C41.1707 229.855 31.6546 230.506 25.8679 227.414C22.368 225.543 19.9774 222.325 19.4283 218.296C18.9529 214.819 19.8736 210.548 23.3407 206.054C31.2694 195.775 38.0014 186.889 43.6405 180.461C36.9386 178.503 30.9606 175.655 28.1738 172.792C25.8023 170.356 24.4062 166.661 24.1057 162.475C23.8133 158.43 24.5155 153.922 25.8925 150.082Z" fill="#231F20"/>
<path fill-rule="evenodd" clip-rule="evenodd" d="M24.7341 122.299C22.9336 119.654 22.0648 116.127 22.0538 112.388C22.0347 106.246 24.3133 99.5645 28.1083 95.5582C35.4085 87.8509 48.7633 81.4936 68.738 74.5364C69.0358 65.7191 68.3937 57.7555 66.6369 50.6291C61.1125 28.2054 68.7544 15.2891 80.2813 14.0427C86.0898 13.4155 89.617 16.9909 91.6333 23.1627C94.2944 31.3064 94.289 44.2255 94.707 56.0891C95.2097 70.41 101.332 79.6718 107.444 88.7864C113.846 98.3373 120.233 107.733 120.903 122.043C122.007 145.62 118.365 159.491 103.302 170.678C100.395 172.838 89.464 177.586 82.3331 182.981C71.3034 191.324 61.7273 200.757 46.3235 218.978C40.0122 226.443 32.1272 227.31 27.2777 224.716C24.6494 223.312 22.838 220.906 22.4254 217.882C22.0374 215.04 22.8981 211.587 25.7286 207.916C35.2965 195.513 43.0941 185.149 49.3288 178.751C46.7169 178.203 44.1132 177.505 41.6897 176.695C36.7145 175.034 32.4906 172.879 30.3322 170.659C28.4088 168.682 27.3651 165.649 27.1192 162.251C26.8023 157.846 27.8023 152.828 29.6 149.018C27.9307 147.916 26.5646 146.771 25.592 145.623C23.6275 143.305 22.5046 140.127 22.1658 136.634C21.7096 131.926 22.6768 126.646 24.7341 122.299ZM68.585 77.8309C49.8807 84.4036 37.2637 90.3436 30.335 97.6609C27.0236 101.157 25.1002 107.018 25.1193 112.38C25.1302 115.751 25.9007 118.939 27.6957 121.156C27.7066 121.17 27.7176 121.184 27.7285 121.197C27.7585 121.233 27.7886 121.271 27.8187 121.306C29.7967 123.638 33.7966 125.888 38.4767 127.756C45.6896 130.639 54.5281 132.567 60.5388 132.142C70.4947 131.435 77.2595 128.114 87.4449 116.866C91.1634 112.759 92.1634 109.366 91.4257 106.789C90.3929 103.178 86.0488 101.495 82.6965 102.316C78.7103 103.293 74.0465 105.96 69.6997 108.074C66.5632 109.598 63.5742 110.842 61.077 111.153C55.7794 111.81 50.4244 108.965 50.4244 108.965C49.6785 108.567 49.3998 107.64 49.7987 106.895C50.1976 106.151 51.1266 105.873 51.8724 106.271C51.8724 106.271 56.3067 108.665 60.7 108.12C63.5141 107.771 66.9894 106.031 70.5876 104.22C74.47 102.265 78.4753 100.205 81.9697 99.3491C86.7701 98.1709 92.8956 100.775 94.3736 105.952C95.3108 109.23 94.4474 113.697 89.7181 118.917C89.1607 119.531 88.6143 120.125 88.0761 120.695C91.9858 121.211 95.7834 123.717 96.92 127.696C97.8872 131.086 96.9911 135.698 92.106 141.095C90.0214 143.4 88.0651 145.399 86.1909 147.131C89.7126 147.513 93.1497 149.553 94.2944 152.869C95.2944 155.768 94.6551 159.807 90.3219 164.637C80.4725 175.617 73.7187 178.893 63.7354 179.926C60.7082 180.24 56.9324 180.025 52.9981 179.419C46.5994 185.539 38.4194 196.478 28.1547 209.782C25.9581 212.629 25.1575 215.264 25.4581 217.467C25.734 219.488 26.9662 221.081 28.7203 222.019C32.6382 224.114 38.8838 223.031 43.9793 217.004C59.588 198.54 69.3035 188.995 80.4807 180.543C87.6198 175.145 98.5593 170.386 101.469 168.224C115.701 157.655 118.881 144.458 117.84 122.185C117.201 108.529 111.007 99.6 104.895 90.4855C98.4937 80.9373 92.1715 71.1955 91.6442 56.1955C91.2372 44.6373 91.3109 32.0427 88.7208 24.1091C87.2346 19.56 84.8931 16.6173 80.6091 17.0809C75.7186 17.61 71.8089 20.6973 69.6751 25.9936C67.391 31.6582 67.1041 39.7227 69.6122 49.8982C71.492 57.5236 72.1449 66.0845 71.757 75.5973C71.7597 75.6655 71.757 75.7336 71.7488 75.8018C71.4291 83.3727 70.451 91.5436 68.9046 100.323C68.7571 101.155 67.9648 101.711 67.1315 101.564C66.2981 101.416 65.7408 100.625 65.8883 99.7936C67.2653 91.98 68.1888 84.66 68.5877 77.8282L68.585 77.8309ZM32.2447 150.592C30.7311 153.925 29.9005 158.236 30.1738 162.033C30.3623 164.643 31.0508 167.01 32.5289 168.529C34.4468 170.498 38.2445 172.32 42.6597 173.795C45.8016 174.845 49.2605 175.705 52.621 176.272C52.7003 176.28 52.7822 176.291 52.8587 176.313C56.7247 176.948 60.4514 177.194 63.4157 176.885C72.6832 175.925 78.8933 172.789 88.0351 162.597C91.3 158.959 92.147 156.046 91.3929 153.865C90.3273 150.775 86.2455 149.525 83.1828 150.349C82.8167 150.447 82.4233 150.575 82.008 150.725C81.9561 150.745 81.9014 150.761 81.8495 150.775C77.377 154.143 73.1859 156.038 68.5658 157.064C66.5195 157.519 64.3911 157.803 62.1125 157.964C60.6508 158.067 59.0388 158.051 57.3285 157.923C49.3452 157.331 39.1707 154.336 32.2393 150.589L32.2447 150.592ZM26.9881 124.778C25.5155 128.392 24.8515 132.575 25.2149 136.342C25.4881 139.173 26.3378 141.769 27.9307 143.651C28.8295 144.712 30.1437 145.754 31.742 146.763C38.2172 150.851 49.1676 154.255 57.558 154.876C59.1099 154.991 60.5716 155.01 61.8967 154.915C64.0168 154.765 66.0004 154.503 67.9019 154.08C72.3744 153.085 76.3989 151.184 80.7649 147.75C83.5844 145.533 86.5379 142.683 89.8274 139.045C93.7015 134.76 94.737 131.22 93.9693 128.531C92.9038 124.797 88.4558 123.03 84.9723 123.821C76.4808 131.967 69.8254 134.542 60.7519 135.188C54.3751 135.641 44.9847 133.653 37.3347 130.593C33.1081 128.902 29.4142 126.873 26.9853 124.778H26.9881Z" fill="white"/>
<path fill-rule="evenodd" clip-rule="evenodd" d="M118.277 98.6236C117.81 97.92 118.004 96.9709 118.709 96.5045C119.414 96.0382 120.365 96.2318 120.832 96.9354C129.315 109.718 134.033 138.799 120.903 163.006C120.501 163.748 119.569 164.024 118.826 163.623C118.083 163.222 117.807 162.292 118.209 161.55C130.717 138.496 126.356 110.798 118.277 98.6236Z" fill="#FF6400"/>
</g>
<defs>
<clipPath id="clip0_75_2026">
<rect width="153" height="240" fill="white"/>
</clipPath>
</defs>
</svg>
