<svg width="28" height="35" viewBox="0 0 28 35" fill="none" xmlns="http://www.w3.org/2000/svg">
<path d="M20.1582 20.0248C19.5287 18.4558 18.7418 17.2492 17.8071 16.4051C16.8676 15.561 15.9424 15.1366 15.0315 15.1366C13.9585 15.1366 13.1526 15.7375 12.6185 16.944C12.0843 18.1506 11.8125 19.6003 11.8125 21.2885C11.8363 22.8432 12.0653 24.4456 12.4945 26.0956C12.9237 27.7457 13.5722 29.1382 14.445 30.278C15.3177 31.4178 16.3668 31.9853 17.602 31.9853C18.2458 31.9853 18.8801 31.8041 19.5096 31.4416C20.058 31.1269 20.6017 30.6357 21.1358 29.9871L21.0976 25.4709C21.0976 23.4059 20.7829 21.589 20.1534 20.0248H20.1582Z" fill="#EB631B"/>
<path d="M27.45 5.40798C27.45 2.42262 25.0274 0 22.0421 0H5.40798C2.42262 0 0 2.42262 0 5.40798V29.2718C0 32.2571 2.42262 34.6798 5.40798 34.6798H12.261C11.7698 34.489 11.2976 34.241 10.8493 33.9358C9.6428 33.1203 8.68901 31.9853 7.99275 30.5403C7.29648 29.0906 6.94835 27.4691 6.94835 25.676C6.86728 23.5872 7.23449 21.6224 8.05475 19.7863C8.87024 17.9503 10.01 16.4815 11.4741 15.3846C12.9334 14.2878 14.5357 13.7346 16.2812 13.7346C17.0585 13.7346 17.7834 13.8347 18.451 14.035C19.1187 14.2353 19.753 14.531 20.3395 14.9173C20.6114 15.0937 20.8784 15.3035 21.1455 15.5277V6.93404L26.2912 6.12809V28.566L26.8062 31.8327C27.2164 31.0697 27.45 30.197 27.45 29.2718V5.40798Z" fill="#EB631B"/>
<path d="M18.2696 34.2601C17.9548 34.4223 17.6401 34.5653 17.3301 34.6846H22.0418C22.0418 34.6846 22.0561 34.6846 22.0656 34.6846L21.3646 31.146C20.3727 32.6625 19.3378 33.7069 18.2648 34.2601H18.2696Z" fill="#EB631B"/>
<path d="M26.2912 6.13293L21.1455 6.93889V15.5325C20.8785 15.3036 20.6114 15.0985 20.3396 14.9221C19.7482 14.5358 19.1187 14.2401 18.4511 14.0398C17.7787 13.8395 17.0585 13.7394 16.2812 13.7394C14.5405 13.7394 12.9382 14.2878 11.4741 15.3895C10.0148 16.4911 8.87504 17.9551 8.05478 19.7912C7.23929 21.6272 6.86732 23.592 6.94839 25.6808C6.94839 27.4787 7.29652 29.1002 7.99279 30.5452C8.68905 31.9949 9.64284 33.1252 10.8494 33.9406C11.2977 34.2459 11.7698 34.4938 12.261 34.6846H17.3304C17.6404 34.5654 17.9503 34.4271 18.2699 34.2602C19.3429 33.707 20.373 32.6626 21.3697 31.146L22.0707 34.6846C24.1214 34.6751 25.9002 33.5257 26.8063 31.8423L26.2912 28.5756V6.13293ZM19.5146 31.4465C18.8851 31.8089 18.246 31.9901 17.607 31.9901C16.3718 31.9901 15.3227 31.4226 14.4499 30.2829C13.5772 29.1431 12.9286 27.7506 12.4994 26.1005C12.0702 24.4504 11.8413 22.8481 11.8175 21.2934C11.8175 19.6052 12.0845 18.1554 12.6234 16.9489C13.1576 15.7424 13.9635 15.1415 15.0365 15.1415C15.9474 15.1415 16.8726 15.5659 17.812 16.41C18.7515 17.2541 19.5336 18.4607 20.1631 20.0296C20.7926 21.5986 21.1074 23.4156 21.1074 25.4758L21.1455 29.992C20.6066 30.6405 20.063 31.1317 19.5193 31.4465H19.5146Z" fill="white"/>
</svg>
